<?xml version="1.0" encoding="UTF-8"?>
<svg version="1.1" xmlns="http://www.w3.org/2000/svg" width="1289" height="1228">
<path d="M0 0 C3.6288065 1.788314 3.6288065 1.788314 7.45703125 3.03125 C9.3125 3.5 9.3125 3.5 12.3125 5.5 C14.47874355 6.58067844 16.65956061 7.63224945 18.84765625 8.66796875 C19.83357002 9.13490898 19.83357002 9.13490898 20.83940125 9.61128235 C23.01630171 10.64019279 25.19534164 11.66444566 27.375 12.6875 C28.13035034 13.04247559 28.88570068 13.39745117 29.66394043 13.76318359 C68.1866446 31.84349605 107.33202845 48.90032537 147.3125 63.5 C148.44204102 63.91411133 149.57158203 64.32822266 150.73535156 64.75488281 C203.02968347 83.86443218 255.76482853 98.79475244 310.27709961 110.10131836 C314.79616234 111.03888655 319.31142879 111.99249486 323.82305908 112.96520996 C325.46339722 113.3175929 327.10478572 113.66512656 328.74725342 114.00744629 C330.98095088 114.47734971 333.20733105 114.97277019 335.43359375 115.4765625 C336.67423584 115.74807129 337.91487793 116.01958008 339.19311523 116.29931641 C343.00873913 117.76798967 344.29242705 118.95475687 346.3125 122.5 C346.84737243 125.23072228 347.16526925 127.63682934 347.32421875 130.38671875 C347.38277542 131.16143021 347.44133209 131.93614166 347.50166321 132.73432922 C347.68459519 135.21784601 347.84220403 137.70227412 348 140.1875 C348.11629041 141.77550475 348.23411814 143.36339771 348.35351562 144.95117188 C350.07604109 168.64995518 350.52017046 192.37073283 350.5 216.125 C350.49973312 216.78532352 350.49946625 217.44564705 350.49919128 218.12598038 C350.48749554 241.30131758 350.05601701 264.38527157 348.3125 287.5 C348.2516925 288.32000488 348.19088501 289.14000977 348.12823486 289.98486328 C345.99922198 318.39355875 342.11279941 346.42741282 337.3125 374.5 C337.17434875 375.31686279 337.03619751 376.13372559 336.89385986 376.9753418 C322.60149815 461.43314296 294.78583315 546.67652778 247.3125 618.5 C246.20576769 620.269231 245.10152495 622.04002221 244 623.8125 C227.79830616 649.29915528 208.52454682 672.76061769 187.91601562 694.78320312 C186.20411987 696.6160367 184.50006022 698.45594584 182.796875 700.296875 C165.73276788 718.71289201 165.73276788 718.71289201 156.36328125 726.73046875 C154.03683417 728.73786023 151.77057314 730.80466638 149.5 732.875 C145.23423318 736.72001592 140.86334049 740.39760845 136.39453125 744.00390625 C134.16732955 745.80768558 131.95929892 747.6257883 129.76171875 749.46484375 C119.36903762 758.1127779 108.48666755 765.89729331 97.3125 773.5 C96.61705078 773.97598633 95.92160156 774.45197266 95.20507812 774.94238281 C86.74398688 780.72426826 78.11238988 786.14772834 69.27783203 791.33935547 C67.22891446 792.54936219 65.1901816 793.77534198 63.15234375 795.00390625 C54.55659082 800.16313399 45.86370763 804.92699444 36.83496094 809.28222656 C33.79467538 810.74999121 30.76100039 812.23112237 27.7265625 813.7109375 C25.33889044 814.87051009 22.95086769 816.02936086 20.5625 817.1875 C19.4379541 817.73446533 18.3134082 818.28143066 17.15478516 818.8449707 C-6.98984486 830.48847311 -6.98984486 830.48847311 -13.68212891 828.69946289 C-14.70741699 828.2739917 -15.73270508 827.84852051 -16.7890625 827.41015625 C-17.92633789 826.9423877 -19.06361328 826.47461914 -20.23535156 825.99267578 C-25.5400438 823.69897788 -30.82112886 821.37299099 -36.0625 818.9375 C-37.18317871 818.41720215 -38.30385742 817.8969043 -39.45849609 817.36083984 C-65.65691358 805.08714165 -90.89869081 790.98063108 -114.6875 774.5 C-115.7396167 773.77780273 -115.7396167 773.77780273 -116.81298828 773.04101562 C-132.21090014 762.45782133 -146.97074993 751.06651037 -161.10888672 738.85205078 C-162.73798591 737.45675983 -164.38421956 736.08420322 -166.03515625 734.71484375 C-173.56678683 728.42764371 -180.58835969 721.77333799 -187.4465332 714.75512695 C-188.08679443 714.10116943 -188.72705566 713.44721191 -189.38671875 712.7734375 C-189.95221436 712.18997559 -190.51770996 711.60651367 -191.1003418 711.00537109 C-192.82015004 709.28869963 -192.82015004 709.28869963 -195.6875 707.5 C-195.6875 706.84 -195.6875 706.18 -195.6875 705.5 C-196.3475 705.5 -197.0075 705.5 -197.6875 705.5 C-199.16796875 703.99609375 -199.16796875 703.99609375 -200.875 701.9375 C-203.17478702 699.22517387 -205.49804465 696.65033357 -208.0625 694.1875 C-211.82890094 690.48835622 -215.06942973 686.4221279 -218.375 682.3125 C-220.53099735 679.69034106 -222.76317103 677.18391432 -225.0625 674.6875 C-230.62507596 668.56480354 -235.67945467 662.07799299 -240.6875 655.5 C-241.12819824 654.9215332 -241.56889648 654.34306641 -242.02294922 653.74707031 C-265.50749345 622.73040493 -286.46035403 588.64861958 -302.375 553.125 C-302.66953064 552.46970306 -302.96406128 551.81440613 -303.26751709 551.13925171 C-320.76055038 512.10964849 -334.1319855 471.92062962 -344.6875 430.5 C-344.85958984 429.82906311 -345.03167969 429.15812622 -345.20898438 428.46685791 C-361.74079831 364.01312919 -368.61804194 296.94008194 -369.6875 230.5 C-369.70941406 229.3670752 -369.73132813 228.23415039 -369.75390625 227.06689453 C-370.06090172 209.38139703 -369.4662261 191.73394002 -368.8125 174.0625 C-368.77329437 172.96723999 -368.73408875 171.87197998 -368.69369507 170.74353027 C-368.26891792 159.09518238 -367.71098992 147.46157499 -366.8046875 135.83984375 C-366.73887482 134.90008194 -366.67306213 133.96032013 -366.60525513 132.99208069 C-366.14698152 127.58598729 -365.48030267 123.20515863 -362.6875 118.5 C-357.88843182 115.10923418 -352.17829948 114.38865594 -346.5 113.3359375 C-344.43830003 112.93716431 -342.37661443 112.53831678 -340.31494141 112.1394043 C-339.23480774 111.93374847 -338.15467407 111.72809265 -337.04180908 111.51620483 C-331.34291605 110.42681275 -325.65180924 109.29841018 -319.9609375 108.16796875 C-318.81982513 107.9413002 -317.67871277 107.71463165 -316.50302124 107.48109436 C-274.20544732 99.03225244 -233.07487905 86.67722828 -192.29125977 72.72607422 C-189.04297832 71.62094114 -185.78726984 70.54280835 -182.52734375 69.47265625 C-176.03855414 67.31355167 -169.64191888 64.92914921 -163.25 62.5 C-162.63144135 62.26522949 -162.01288269 62.03045898 -161.37557983 61.78857422 C-148.1866465 56.7735634 -135.14650609 51.42137889 -122.13964844 45.95117188 C-118.8796155 44.58075916 -115.61604371 43.21914951 -112.3515625 41.859375 C-100.31685849 36.82784751 -88.35510895 31.63574514 -76.42654419 26.35827637 C-74.88218193 25.67510066 -73.33734108 24.99300551 -71.79196167 24.31213379 C-61.92199389 19.95888954 -52.23214851 15.33943596 -42.60852051 10.46768188 C-37.14896899 7.71752431 -31.64337885 5.06747119 -26.125 2.4375 C-25.52260498 2.14109619 -24.92020996 1.84469238 -24.29956055 1.53930664 C-22.51903543 0.66440781 -20.72640646 -0.185721 -18.93359375 -1.03515625 C-17.38176392 -1.78357788 -17.38176392 -1.78357788 -15.79858398 -2.54711914 C-10.02524254 -4.31541167 -5.2445375 -2.57363894 0 0 Z M-17.640625 12.0625 C-18.81882812 12.61292969 -19.99703125 13.16335937 -21.2109375 13.73046875 C-22.45313135 14.32029913 -23.69531884 14.91014289 -24.9375 15.5 C-26.71253906 16.32951172 -26.71253906 16.32951172 -28.5234375 17.17578125 C-34.87128553 20.1577617 -41.16286741 23.23074866 -47.421875 26.39453125 C-56.39418409 30.91645957 -65.52192733 35.07450889 -74.6875 39.1875 C-75.98326462 39.77035767 -75.98326462 39.77035767 -77.3052063 40.36499023 C-92.78142505 47.31609655 -108.39466297 53.84815855 -124.16552734 60.09765625 C-127.43744271 61.40043469 -130.69888809 62.7257191 -133.95703125 64.0625 C-204.71024941 92.99679694 -277.92002177 112.28834012 -352.6875 127.5 C-354.37908372 137.17025481 -355.27018711 146.79823155 -355.796875 156.58984375 C-355.83874687 157.34085798 -355.88061874 158.09187222 -355.92375946 158.86564445 C-356.83695825 175.49961023 -357.0065435 192.11428504 -356.94544983 208.76973724 C-356.93732366 211.11335751 -356.93240516 213.45696795 -356.92810059 215.80059814 C-356.76478854 293.22011979 -348.91720025 369.61395688 -328.6875 444.5 C-328.51023376 445.1607251 -328.33296753 445.8214502 -328.15032959 446.50219727 C-319.69746034 477.96755583 -308.98490619 508.75219441 -295.6875 538.5 C-295.23181641 539.52802734 -294.77613281 540.55605469 -294.30664062 541.61523438 C-288.5054368 554.81415146 -288.5054368 554.81415146 -281.6875 567.5 C-281.0275 567.5 -280.3675 567.5 -279.6875 567.5 C-279.32914062 566.51386719 -278.97078125 565.52773438 -278.6015625 564.51171875 C-276.567561 559.77642051 -273.40007099 556.1882604 -270.0625 552.3125 C-268.79096793 550.80376732 -267.52143819 549.29334487 -266.25390625 547.78125 C-265.33182373 546.68296875 -265.33182373 546.68296875 -264.39111328 545.5625 C-261.41844499 541.96360322 -258.66693174 538.21576563 -255.89453125 534.4609375 C-249.44913029 525.81383321 -242.66412531 517.42371237 -235.81640625 509.09375 C-233.67813118 506.48858551 -231.55207167 503.87444035 -229.4375 501.25 C-228.83421875 500.50234375 -228.2309375 499.7546875 -227.609375 498.984375 C-226.97515625 498.16453125 -226.3409375 497.3446875 -225.6875 496.5 C-224.83562922 495.51893469 -223.98375843 494.53786938 -223.10607338 493.52707481 C-219.76003032 488.78719055 -219.9976318 484.21892141 -220.06845093 478.58242798 C-220.06221195 477.49248862 -220.05597297 476.40254925 -220.04954493 475.27958143 C-220.03463893 471.63214295 -220.05526507 467.98577782 -220.07568359 464.33837891 C-220.07214229 461.72143677 -220.06636458 459.10449685 -220.05851746 456.48756409 C-220.04491835 450.85418008 -220.04918789 445.22103947 -220.06534958 439.58766556 C-220.08845428 431.4330484 -220.08109203 423.27867423 -220.06581838 415.12404887 C-220.04155824 401.87987901 -220.03733612 388.63578701 -220.04785156 375.39160156 C-220.04847539 374.59942672 -220.04909921 373.80725188 -220.04974194 372.99107175 C-220.05101322 371.38784333 -220.05228746 369.78461491 -220.05356465 368.18138649 C-220.05419703 367.38658205 -220.05482941 366.59177761 -220.05548096 365.77288818 C-220.0561191 364.97742117 -220.05675725 364.18195416 -220.05741473 363.36238209 C-220.06421797 354.53130204 -220.06621166 345.70022309 -220.06640625 336.86914062 C-220.06642908 336.0785405 -220.06645191 335.28794037 -220.06647544 334.47338267 C-220.06640614 321.28020824 -220.05436161 308.08706333 -220.03544676 294.89390314 C-220.02449814 286.76231156 -220.02528909 278.63087499 -220.0413865 270.49929105 C-220.0531121 264.26586591 -220.05007736 258.03252974 -220.04175758 251.79910088 C-220.04094759 249.24535562 -220.04529414 246.69160268 -220.05520058 244.13787651 C-220.06807908 240.64893514 -220.06253733 237.16047948 -220.05258179 233.67153931 C-220.06083996 232.66364652 -220.06909814 231.65575374 -220.07760656 230.61731875 C-220.03011896 223.58573879 -219.15045729 217.05496727 -215.06640625 211.16015625 C-205.67073639 202.89600792 -192.75864758 204.20661988 -180.91670227 204.23930359 C-179.34945866 204.23627757 -177.78221653 204.23238584 -176.21497697 204.22771102 C-171.93824242 204.217481 -167.66159216 204.21959998 -163.38485086 204.22389162 C-158.76111547 204.22636784 -154.13739991 204.21733378 -149.51367188 204.20985413 C-140.46843578 204.19713171 -131.42322941 204.19531022 -122.37798587 204.19765439 C-115.02613362 204.19943982 -107.67429037 204.19768311 -100.32243919 204.19342995 C-99.27480167 204.19283476 -98.22716414 204.19223957 -97.14778003 204.19162634 C-95.01934702 204.19041456 -92.89091401 204.18920043 -90.762481 204.18798397 C-70.82277656 204.17711871 -50.88308905 204.17926661 -30.94338366 204.18536881 C-12.70490095 204.19054177 5.53352842 204.17927073 23.77200057 204.16027059 C42.51142463 204.1408985 61.25082343 204.13263479 79.99025756 204.13639385 C90.50634221 204.13830624 101.0223814 204.1358142 111.53845787 204.12167931 C120.48682835 204.10977287 129.43512537 204.10835267 138.38349684 204.12046947 C142.94766855 204.1263622 147.51170582 204.12744651 152.07586861 204.11546707 C156.25605228 204.10462288 160.43598903 204.10769412 164.61616109 204.12172876 C166.12604662 204.12437962 167.63595143 204.12199691 169.14581808 204.11399289 C186.95926792 204.02613533 186.95926792 204.02613533 193.65234375 209.3671875 C194.17957031 210.02976562 194.70679688 210.69234375 195.25 211.375 C195.79527344 212.03242188 196.34054687 212.68984375 196.90234375 213.3671875 C200.75553744 219.19500954 200.57955636 224.4388317 200.51695251 231.22607422 C200.51399928 232.86643725 200.51399928 232.86643725 200.51098639 234.53993893 C200.5022205 238.21161495 200.47933654 241.88307223 200.45678711 245.5546875 C200.44807894 248.18454174 200.44040344 250.81439957 200.4336853 253.44425964 C200.42041758 258.37796506 200.40350263 263.31163539 200.38234908 268.24531335 C200.3409136 277.94797549 200.32542953 287.65052868 200.31947327 297.35327148 C200.31840947 298.88209503 200.31733413 300.41091856 200.3162474 301.93974209 C200.31463261 304.25674585 200.31304471 306.57374962 200.311527 308.89075345 C200.30575993 317.62460059 200.29770172 326.35844337 200.28637695 335.09228516 C200.28535115 335.89052299 200.28432535 336.68876082 200.28326846 337.51118767 C200.26561807 350.43205666 200.21498312 363.35261879 200.15389567 376.27334595 C200.09206833 389.55242601 200.07240638 402.83112297 200.08983427 416.1103363 C200.09912312 424.29299096 200.07497397 432.47414135 200.00722129 440.65652698 C199.96374236 446.27185356 199.96085543 451.88630254 199.98918103 457.50172192 C200.00427613 460.73680589 199.99587522 463.96875477 199.95078087 467.20363426 C199.32540385 483.49884285 199.32540385 483.49884285 206.69166565 497.36767578 C208.50723364 499.1612524 210.38754567 500.81917221 212.3125 502.5 C213.43303646 503.87074489 214.52627853 505.26587945 215.5546875 506.70703125 C215.99361328 507.30451172 216.43253906 507.90199219 216.88476562 508.51757812 C217.52961914 509.40606445 217.52961914 509.40606445 218.1875 510.3125 C222.25723273 515.82996374 226.45681248 521.20557554 230.8125 526.5 C236.744372 533.72044676 242.37481001 541.13383758 247.93115234 548.64550781 C249.25918789 550.42842721 250.60384274 552.19705959 251.95703125 553.9609375 C252.75496094 555.00507812 253.55289063 556.04921875 254.375 557.125 C255.06722656 558.02476562 255.75945313 558.92453125 256.47265625 559.8515625 C258.3995007 562.62523668 259.87585579 565.44769049 261.3125 568.5 C264.11055801 565.07345512 266.0508555 561.32035083 268 557.375 C268.30099609 556.78074219 268.60199219 556.18648437 268.91210938 555.57421875 C275.99504793 541.35156457 282.01174075 526.64194241 287.6875 511.8125 C288.00921173 510.97405548 288.33092346 510.13561096 288.66238403 509.27175903 C294.81546531 493.19053594 300.41833932 477.01109408 305.3125 460.5 C305.64765625 459.37158691 305.9828125 458.24317383 306.328125 457.08056641 C326.99980078 386.23701087 337.45060182 311.43336418 337.48046875 237.66796875 C337.48370082 235.73440021 337.48706615 233.80083189 337.49055481 231.86726379 C337.49648175 227.84289994 337.49840157 223.81855735 337.49780273 219.79418945 C337.49772179 215.74271144 337.50462486 211.69134727 337.51831055 207.63989258 C338.08261507 167.94611241 338.08261507 167.94611241 334.3125 128.5 C329.66114707 126.83964941 324.98578745 125.70982534 320.15625 124.72265625 C318.50034114 124.37661661 316.8445013 124.03024657 315.1887207 123.68359375 C313.87781967 123.41071533 313.87781967 123.41071533 312.54043579 123.13232422 C277.8324152 115.88234759 243.16609083 108.11233651 209.3125 97.5 C208.60152161 97.27741516 207.89054321 97.05483032 207.15802002 96.82550049 C147.02129006 77.95679775 88.96266713 54.44959442 31.76828003 28.00810242 C25.90495891 25.30159847 20.00181207 22.69222244 14.08349609 20.10888672 C8.41930397 17.60993664 2.90048842 14.83882956 -2.56713867 11.93554688 C-8.51830292 8.84646437 -11.70703709 9.2732221 -17.640625 12.0625 Z M-207.6875 219.5 C-208.86138814 221.84777629 -208.81179745 223.22114915 -208.81054783 225.83784676 C-208.8125387 226.75476673 -208.81452957 227.67168671 -208.81658077 228.61639214 C-208.81366811 229.62970667 -208.81075544 230.6430212 -208.80775452 231.68704224 C-208.80861053 232.75604767 -208.80946655 233.8250531 -208.81034851 234.92645264 C-208.81201241 238.5435957 -208.80646598 242.16069315 -208.80102539 245.77783203 C-208.80071927 248.40130042 -208.80085218 251.02476888 -208.80139065 253.64823723 C-208.80192325 259.98046905 -208.79729679 266.31268673 -208.79088932 272.64491492 C-208.78370204 279.96632063 -208.78289527 287.28772136 -208.78210449 294.60913086 C-208.77684966 313.94775615 -208.76288861 333.28637829 -208.75 352.625 C-208.729375 395.81375 -208.70875 439.0025 -208.6875 483.5 C-77.3475 483.5 53.9925 483.5 189.3125 483.5 C189.395 440.55875 189.4775 397.6175 189.5625 353.375 C189.59891602 339.80358887 189.63533203 326.23217773 189.67285156 312.24951172 C189.68622721 300.11085714 189.68622721 300.11085714 189.6942749 287.97219849 C189.69800969 282.55489108 189.71270178 277.13774312 189.73480225 271.7204895 C189.76292917 264.81583692 189.77047489 257.91141474 189.7647891 251.00670838 C189.76597851 248.46932333 189.77394296 245.93193054 189.78936052 243.39459205 C189.80919058 239.97280336 189.80448494 236.5519046 189.79351807 233.13009644 C189.80516872 232.13232241 189.81681938 231.13454838 189.82882309 230.10653877 C189.77839886 224.27230527 189.19745901 220.9471966 185.3125 216.5 C182.51126671 215.09938336 180.20591147 215.37059043 177.07047653 215.36577892 C176.09467556 215.36225058 176.09467556 215.36225058 175.09916145 215.35865095 C172.89818345 215.35194273 170.69726424 215.35241972 168.49627686 215.35282898 C166.91077784 215.34953149 165.32527967 215.34580616 163.73978257 215.3416875 C159.36627777 215.33164634 154.99278669 215.32794732 150.61927199 215.32529819 C145.90884931 215.3214014 141.19843757 215.31182265 136.48802185 215.30308533 C125.10422893 215.28330333 113.72043509 215.27325257 102.33662927 215.26435754 C96.97985359 215.25997753 91.62307891 215.25460999 86.26630402 215.24936867 C68.46614156 215.23235476 50.66597973 215.21785963 32.86581039 215.21061993 C28.24436187 215.20870994 23.62291335 215.20678962 19.00146484 215.20483398 C17.85278302 215.20435024 16.7041012 215.2038665 15.52061084 215.2033681 C-3.09560229 215.19506427 -21.71175123 215.1697221 -40.32793632 215.13725331 C-59.42749951 215.10421219 -78.52703004 215.08617384 -97.62662196 215.08297569 C-108.3557284 215.08080787 -119.08474124 215.07201955 -129.81381989 215.04651451 C-138.94954035 215.02484775 -148.0851445 215.01673722 -157.22088775 215.02648129 C-161.88389947 215.03103768 -166.54667099 215.02906231 -171.20965004 215.00971985 C-175.47709708 214.99217062 -179.74412721 214.99301842 -184.01157817 215.00861714 C-185.55670743 215.01100581 -187.10186495 215.00660482 -188.64695087 214.99478849 C-190.74584651 214.97972902 -192.84325353 214.98929835 -194.94211197 215.00501537 C-196.69137619 215.00355016 -196.69137619 215.00355016 -198.47597909 215.00205535 C-202.40450561 215.61117135 -204.59535077 217.04813729 -207.6875 219.5 Z M-216.42246014 501.40119267 C-217.04865487 502.4401023 -217.04865487 502.4401023 -217.6875 503.5 C-218.69806376 504.82243769 -219.71993834 506.13638594 -220.7578125 507.4375 C-221.77823314 508.79001607 -222.79639844 510.14423615 -223.8125 511.5 C-228.2642128 517.38747637 -232.81467894 523.17178609 -237.5 528.875 C-241.73008278 534.03056909 -245.77525837 539.25453963 -249.63671875 544.6953125 C-252.66395197 548.83541432 -255.87103862 552.83156119 -259.09619141 556.81884766 C-261.13722735 559.37250912 -262.64453008 561.37109025 -263.6875 564.5 C-95.7175 564.5 72.2525 564.5 245.3125 564.5 C241.79397905 559.80863873 238.27524947 555.13571752 234.6875 550.5 C230.75488215 545.40247285 226.86520779 540.27381633 223 535.125 C222.50870605 534.47144531 222.01741211 533.81789063 221.51123047 533.14453125 C221.0370166 532.51160156 220.56280273 531.87867188 220.07421875 531.2265625 C219.38465088 530.30665527 219.38465088 530.30665527 218.68115234 529.36816406 C217.27330918 527.44650585 215.92997801 525.48740531 214.58203125 523.5234375 C213.83308594 522.52570312 213.08414062 521.52796875 212.3125 520.5 C211.6525 520.5 210.9925 520.5 210.3125 520.5 C210.08046875 519.96890625 209.8484375 519.4378125 209.609375 518.890625 C207.91040664 515.75879175 205.75862822 513.04091295 203.5625 510.25 C202.71298794 509.16189041 201.86403685 508.07334265 201.015625 506.984375 C200.58795178 506.46121673 200.16027857 505.93805845 199.71964556 505.3990469 C198.3125 503.5 198.3125 503.5 197.29760402 501.44544315 C195.88164242 498.87282617 194.64146749 497.31304199 192.3125 495.5 C187.01611612 494.26440649 181.74206001 494.41931623 176.33863831 494.48413086 C174.67613204 494.47491238 173.01364207 494.46220618 171.35118622 494.4463129 C166.78297908 494.41288219 162.21610698 494.42943611 157.64789474 494.45420265 C152.7213474 494.47228232 147.79503178 494.44437496 142.86853027 494.42236328 C133.21739383 494.38675938 123.56675464 494.39448747 113.91559858 494.41766441 C106.07250997 494.4357206 98.22956087 494.43818653 90.38645744 494.42947388 C89.27082086 494.42824801 88.15518428 494.42702215 87.00574053 494.42575914 C84.73943882 494.42320137 82.47313714 494.42060766 80.2068355 494.41797841 C58.94707665 494.39515676 37.6875936 494.42140922 16.42787998 494.46438134 C-1.81783083 494.50011947 -20.06313445 494.49392049 -38.30883789 494.45703125 C-59.49016736 494.41422688 -80.67125494 494.39735929 -101.85262161 494.42192936 C-104.1109616 494.42447778 -106.36930162 494.42699275 -108.62764168 494.42947388 C-110.29441397 494.43132518 -110.29441397 494.43132518 -111.99485843 494.43321389 C-119.82890605 494.44012403 -127.66280038 494.42845626 -135.49682426 494.40963745 C-145.04357685 494.3872088 -154.58980318 494.39325245 -164.1364954 494.4358834 C-169.00846497 494.45692156 -173.87955692 494.46512142 -178.75152016 494.43869019 C-183.21116445 494.41486166 -187.66911735 494.42792822 -192.128608 494.4705106 C-193.74225363 494.47945196 -195.35604198 494.47488812 -196.96959596 494.4555043 C-208.28435178 494.23814106 -208.28435178 494.23814106 -216.42246014 501.40119267 Z M-268.6875 577.5 C-266.98606657 582.32883011 -264.87541202 584.48470334 -260.6875 587.5 C-256.78625936 588.96543517 -252.60872232 588.64074844 -248.49988079 588.63142776 C-247.66330599 588.6334804 -246.82673119 588.63553303 -245.96480563 588.63764787 C-243.14300095 588.64333207 -240.32124485 588.64185887 -237.49943542 588.64044189 C-235.4633201 588.64302471 -233.42720528 588.64603763 -231.39109117 588.6494453 C-225.78126287 588.65752825 -220.17144735 588.65930559 -214.56161392 588.66004276 C-208.51718226 588.66189104 -202.47275728 588.66943719 -196.42832947 588.67617798 C-182.51570135 588.69047951 -168.60307635 588.6962888 -154.69044273 588.70086992 C-147.81671427 588.7032054 -140.94298664 588.70680798 -134.06925883 588.7105653 C-110.54379158 588.72340042 -87.0183248 588.73412013 -63.49285412 588.7375679 C-62.01598691 588.73778953 -60.53911969 588.73801132 -59.06225248 588.73823325 C-57.58180431 588.73845389 -56.10135614 588.73867438 -54.62090796 588.7388947 C-51.65083643 588.73933726 -48.68076489 588.73978437 -45.71069336 588.74023438 C-44.60608521 588.74039846 -44.60608521 588.74039846 -43.47916175 588.74056586 C-19.59491456 588.74419744 4.2893023 588.76012148 28.17353787 588.78342474 C53.42045426 588.80801254 78.66735331 588.82174023 103.91428202 588.82293582 C106.68492202 588.82310728 109.45556202 588.82332271 112.22620201 588.82357025 C113.24952957 588.8236539 113.24952957 588.8236539 114.29353042 588.82373925 C125.27885027 588.82489054 136.26413902 588.83591912 147.24944837 588.85045731 C158.2876131 588.86481304 169.32574629 588.86781168 180.36392001 588.86001733 C186.34546626 588.85610175 192.32690771 588.85708469 198.30844116 588.87107468 C203.78164352 588.88375898 209.25466173 588.88266435 214.72786363 588.87048396 C216.71036061 588.86851746 218.69287038 588.87164907 220.67534933 588.88032833 C223.36624362 588.89136536 226.05648167 588.88397189 228.74735737 588.8719368 C229.52037153 588.87953199 230.29338569 588.88712718 231.08982453 588.89495254 C236.94116653 588.83830132 241.81349349 587.73981406 246.30859375 583.7109375 C246.78425781 583.10507812 247.25992188 582.49921875 247.75 581.875 C248.24371094 581.26398437 248.73742187 580.65296875 249.24609375 580.0234375 C250.40807706 578.67339342 250.40807706 578.67339342 250.3125 577.5 C198.6836741 576.48400439 147.06519494 576.34934724 95.42772318 576.36470055 C87.42246581 576.36701438 79.41721058 576.36725701 71.41195297 576.36618423 C70.25542596 576.366031 69.09889894 576.36587777 67.90732565 576.36571989 C65.55546364 576.36540006 63.20360164 576.36507584 60.85173963 576.3647473 C39.04463064 576.36192754 17.23752593 576.36512615 -4.56958236 576.37054767 C-23.19808306 576.3750354 -41.82657753 576.37421683 -60.45507812 576.36962891 C-82.26435514 576.36425987 -104.07362849 576.36217826 -125.88290608 576.36524117 C-128.21258807 576.36555963 -130.54227006 576.365874 -132.87195206 576.36618423 C-134.01732587 576.36633851 -135.16269969 576.36649279 -136.3427818 576.36665174 C-144.33896396 576.36750822 -152.33514374 576.36607342 -160.33132553 576.36370468 C-170.07194199 576.36088143 -179.8125504 576.36169864 -189.55316596 576.36698543 C-194.50293008 576.36958515 -199.45268086 576.37069173 -204.40244484 576.36733627 C-225.85486344 576.35394508 -247.25292675 576.54323398 -268.6875 577.5 Z M-263.6875 599.5 C-259.80899946 606.56069559 -259.80899946 606.56069559 -255.59375 613.33984375 C-255.04517334 614.16589111 -254.49659668 614.99193848 -253.93139648 615.84301758 C-253.35591064 616.69919678 -252.7804248 617.55537598 -252.1875 618.4375 C-251.57656494 619.34846436 -250.96562988 620.25942871 -250.33618164 621.19799805 C-240.45275303 635.85440572 -230.04822233 649.9547931 -218.6875 663.5 C-218.17832031 664.10827637 -217.66914063 664.71655273 -217.14453125 665.34326172 C-207.4818601 676.84718094 -197.43857803 687.99952985 -186.6875 698.5 C-184.24192603 700.88999274 -181.94864243 703.15781336 -179.875 705.875 C-177.5059586 708.71784968 -174.94869225 710.96602384 -172.140625 713.36328125 C-169.76160955 715.43544917 -167.44967201 717.56260931 -165.14404297 719.71533203 C-154.49284589 729.65792557 -143.47654468 738.92375773 -131.6875 747.5 C-131.02089355 747.98726562 -130.35428711 748.47453125 -129.66748047 748.9765625 C-115.0247489 759.67132125 -100.32691999 770.2953607 -84.6875 779.5 C-83.97094238 779.9232959 -83.25438477 780.3465918 -82.51611328 780.78271484 C-67.53776508 789.58967316 -52.22406979 797.72392568 -36.6875 805.5 C-35.56649902 806.06299805 -34.44549805 806.62599609 -33.29052734 807.20605469 C-30.06079987 808.81171491 -26.81621299 810.38111142 -23.5625 811.9375 C-22.11556763 812.65595093 -22.11556763 812.65595093 -20.6394043 813.38891602 C-14.59847128 816.21014612 -10.16710953 817.44785402 -3.6875 815.5 C0.55008872 813.90734185 4.61028824 812.02581389 8.6875 810.0625 C9.8336377 809.52117432 10.97977539 808.97984863 12.16064453 808.42211914 C21.23991576 804.09935116 30.18705987 799.55942129 39.01611328 794.74755859 C41.38742377 793.45929615 43.76912145 792.19185323 46.15234375 790.92578125 C62.53571084 782.1512838 78.13579457 772.21682927 93.3125 761.5 C94.70090159 760.53643153 96.09017673 759.57412009 97.48046875 758.61328125 C106.49038284 752.3517992 115.17542507 745.80598809 123.65917969 738.84912109 C125.15022233 737.63241973 126.65628233 736.43417813 128.1640625 735.23828125 C137.23528389 728.00003527 145.77607206 720.06913948 153.95703125 711.83984375 C157.00449935 708.81259102 160.25326837 706.05624493 163.51953125 703.26953125 C164.11121094 702.68558594 164.70289063 702.10164062 165.3125 701.5 C165.3125 700.84 165.3125 700.18 165.3125 699.5 C165.89733154 699.24492676 166.48216309 698.98985352 167.0847168 698.72705078 C169.54043973 697.37445205 171.05180007 695.91733503 172.95703125 693.8671875 C173.63443359 693.14273438 174.31183594 692.41828125 175.00976562 691.671875 C175.70779297 690.91390625 176.40582031 690.1559375 177.125 689.375 C177.81142578 688.64023437 178.49785156 687.90546875 179.20507812 687.1484375 C183.67124021 682.34847522 188.02645346 677.4610711 192.3125 672.5 C192.77970459 671.96052734 193.24690918 671.42105469 193.72827148 670.86523438 C209.5472983 652.52602663 223.64132537 632.88222859 236.90185547 612.63232422 C237.91940157 611.0942059 238.95152547 609.56569685 239.99267578 608.04345703 C240.54294434 607.23634277 241.09321289 606.42922852 241.66015625 605.59765625 C242.16683838 604.86168213 242.67352051 604.12570801 243.19555664 603.36743164 C244.48360243 601.57659406 244.48360243 601.57659406 244.3125 599.5 C76.6725 599.5 -90.9675 599.5 -263.6875 599.5 Z " fill="#EEEEEC" transform="translate(648.6875,186.5)"/>
<path d="M0 0 C1.06887451 0.50249268 2.13774902 1.00498535 3.23901367 1.52270508 C4.35767822 2.05919678 5.47634277 2.59568848 6.62890625 3.1484375 C8.96687679 4.24991101 11.30541713 5.35017587 13.64453125 6.44921875 C14.77181641 6.98111816 15.89910156 7.51301758 17.06054688 8.06103516 C20.97162839 9.88787376 24.91341991 11.63117729 28.87890625 13.3359375 C33.56587099 15.35834997 38.20535106 17.45751995 42.81640625 19.6484375 C54.81151659 25.30660122 67.02345601 30.49693687 79.22644043 35.6875 C81.09595417 36.48283019 82.96450738 37.28041712 84.83300781 38.078125 C147.69527021 64.75010443 212.91185915 84.63137869 279.40437317 99.81271362 C282.6219991 100.54834627 285.8379364 101.29121235 289.05383301 102.03436279 C291.04106089 102.48903863 293.0316474 102.92896604 295.02246094 103.36767578 C296.10688477 103.61630371 297.19130859 103.86493164 298.30859375 104.12109375 C299.2197998 104.32355713 300.13100586 104.52602051 301.06982422 104.73461914 C303.19140625 105.5234375 303.19140625 105.5234375 305.19140625 108.5234375 C315.17352035 147.24893173 309.53450588 196.00256089 306.19140625 235.5234375 C306.09312531 236.70951599 306.09312531 236.70951599 305.99285889 237.91955566 C302.28239486 282.60394181 296.16652884 326.5615778 285.95361328 370.25195312 C285.45196432 372.40509088 284.95793721 374.56002101 284.47216797 376.71679688 C278.00099242 405.36673434 268.68353585 433.50193897 258.12890625 460.8984375 C257.70061523 462.02572266 257.27232422 463.15300781 256.83105469 464.31445312 C254.65785906 469.77231301 252.79635476 473.79679467 248.19140625 477.5234375 C242.31640625 475.6484375 242.31640625 475.6484375 241.19140625 474.5234375 C241.40516296 467.07912779 244.25563656 460.52591916 246.93786621 453.67544556 C248.33508342 450.09780663 249.69570606 446.50636765 251.0546875 442.9140625 C251.4629628 441.83533623 251.4629628 441.83533623 251.87948608 440.7348175 C272.5238842 385.88214633 284.08620131 326.68886517 290.19140625 268.5234375 C290.26081421 267.862229 290.33022217 267.20102051 290.4017334 266.51977539 C295.62012217 216.32038799 296.71089182 165.85863332 293.19140625 115.5234375 C292.03382813 115.43320312 290.87625 115.34296875 289.68359375 115.25 C282.43845154 114.43933497 275.3923485 112.59998545 268.31640625 110.8984375 C266.79485315 110.53575421 265.27328722 110.17312472 263.75170898 109.81054688 C242.20321737 104.65603929 220.86285236 98.98200935 199.65576172 92.56054688 C196.17554682 91.51868973 192.68727476 90.50952951 189.1953125 89.5078125 C129.26367199 72.17450225 71.613333 47.20633836 15.01844788 21.19152832 C8.07090201 18.00185102 1.09043017 14.88883072 -5.90625 11.80859375 C-7.55479045 11.07862093 -9.19600678 10.32973099 -10.80859375 9.5234375 C-13.59259483 10.5717798 -13.59259483 10.5717798 -16.80859375 12.1796875 C-17.42289246 12.47302979 -18.03719116 12.76637207 -18.67010498 13.06860352 C-20.01086481 13.70917811 -21.35005317 14.35304958 -22.68786621 14.99975586 C-26.32797627 16.75684807 -29.98253675 18.48334815 -33.63671875 20.2109375 C-34.77575653 20.75010803 -34.77575653 20.75010803 -35.93780518 21.3001709 C-78.70276587 41.48560293 -123.00582541 60.65332372 -167.90234375 75.55371094 C-170.8216134 76.52778176 -173.73473173 77.51917197 -176.64727783 78.51313782 C-221.97953094 93.96836243 -267.96677764 106.54214323 -314.80859375 116.5234375 C-315.56244947 125.45778396 -316.06894233 134.37541437 -316.37109375 143.3359375 C-316.41427734 144.45935547 -316.45746094 145.58277344 -316.50195312 146.74023438 C-317.19588848 166.77624082 -316.85128468 186.80877195 -316.05859375 206.8359375 C-316.0153598 207.93016022 -315.97212585 209.02438293 -315.92758179 210.15176392 C-312.52745975 293.67276826 -298.27571211 377.58985714 -267.43359375 455.5546875 C-267.05541504 456.51858398 -266.67723633 457.48248047 -266.28759766 458.47558594 C-265.57325598 460.28592552 -264.84711357 462.09167183 -264.10693359 463.89160156 C-261.12784522 471.40960539 -261.12784522 471.40960539 -262.80859375 475.5234375 C-265.12137755 477.34062477 -266.43616764 477.53252106 -269.37109375 477.4609375 C-272.68800303 476.18520316 -273.1544661 474.64167909 -274.80859375 471.5234375 C-275.78094067 469.26320128 -276.70485853 466.98184049 -277.59375 464.6875 C-277.85098343 464.02430756 -278.10821686 463.36111511 -278.37324524 462.67782593 C-279.21265503 460.5039008 -280.04302621 458.32670675 -280.87109375 456.1484375 C-281.15760803 455.39723633 -281.44412231 454.64603516 -281.73931885 453.87207031 C-298.23585327 410.49573353 -310.19528112 365.29927942 -317.80859375 319.5234375 C-318.01581055 318.28932129 -318.22302734 317.05520508 -318.43652344 315.78369141 C-325.57411582 272.69358186 -328.96313356 229.1723919 -329.80859375 185.5234375 C-329.83195801 184.4092041 -329.85532227 183.2949707 -329.87939453 182.14697266 C-330.16609828 166.5228229 -329.59663382 150.94335732 -328.93359375 135.3359375 C-328.89438812 134.36256439 -328.8551825 133.38919128 -328.81478882 132.38632202 C-328.69954422 129.58387307 -328.57238206 126.78222187 -328.44140625 123.98046875 C-328.40796616 123.14504547 -328.37452606 122.30962219 -328.34007263 121.44888306 C-328.07820764 116.23334184 -327.50713597 111.48237227 -325.80859375 106.5234375 C-322.84051053 104.56393769 -319.70938005 103.95047811 -316.25537109 103.24853516 C-314.5915892 102.90355484 -314.5915892 102.90355484 -312.89419556 102.55160522 C-311.69805634 102.3077005 -310.50191711 102.06379578 -309.26953125 101.8125 C-294.91357255 98.80773211 -280.66223226 95.45751854 -266.43359375 91.8984375 C-265.22624573 91.59696808 -264.01889771 91.29549866 -262.77496338 90.9848938 C-242.264007 85.84089916 -222.08817056 80.05067697 -202.05828857 73.28131104 C-199.74818857 72.5030883 -197.43534174 71.73357777 -195.12158203 70.96630859 C-160.7864449 59.57053146 -127.02973954 46.84610973 -93.80859375 32.5234375 C-92.94459961 32.15105957 -92.08060547 31.77868164 -91.19042969 31.39501953 C-87.96963037 30.00244509 -84.75535476 28.59716041 -81.54711914 27.17578125 C-78.50242321 25.82717462 -75.45012521 24.49664263 -72.39572144 23.17015076 C-62.17993525 18.72688319 -52.05791595 14.08713483 -41.93945312 9.42749023 C-37.58677724 7.42429164 -33.22811711 5.43525467 -28.86218262 3.46112061 C-26.85086946 2.54274089 -24.85159727 1.60143693 -22.85253906 0.65673828 C-21.62208548 0.09203051 -20.39130843 -0.47197317 -19.16015625 -1.03515625 C-18.09877441 -1.53200928 -17.03739258 -2.0288623 -15.94384766 -2.54077148 C-10.09369717 -4.28688788 -5.34028946 -2.54411553 0 0 Z " fill="#EEEEEB" transform="translate(649.80859375,232.4765625)"/>
<path d="M0 0 C1.90701651 -0.01749658 1.90701651 -0.01749658 3.85255861 -0.03534663 C5.26108524 -0.02808044 6.66960993 -0.0204317 8.07813263 -0.01244164 C9.57619473 -0.01848247 11.07425067 -0.02626034 12.57229567 -0.03562677 C16.6902233 -0.05623287 20.8078036 -0.05181174 24.92576003 -0.04326558 C29.36620218 -0.03833946 33.80655977 -0.05634882 38.24697113 -0.07134056 C46.94626963 -0.09686118 55.64544474 -0.10041874 64.34477437 -0.09574004 C71.41365824 -0.09217673 78.48250459 -0.09566641 85.55138397 -0.10418892 C86.55671904 -0.1053793 87.5620541 -0.10656968 88.59785387 -0.10779613 C90.64004855 -0.11021957 92.68224322 -0.11264784 94.72443789 -0.11508088 C113.88285627 -0.13684175 133.04120427 -0.13250194 152.19962662 -0.12031119 C169.7364726 -0.10996923 187.27309651 -0.13249134 204.80989856 -0.17050762 C222.80780957 -0.20922511 240.80561541 -0.22578353 258.80356836 -0.21826112 C268.91167921 -0.21443138 279.01960097 -0.21946763 289.12767792 -0.2476902 C297.73165751 -0.27146974 306.3353316 -0.27438205 314.9393152 -0.25010987 C319.3309459 -0.23829868 323.72201717 -0.23622432 328.11361122 -0.26011467 C332.13191815 -0.28172078 336.14919483 -0.27576297 340.16745239 -0.2475913 C341.62296714 -0.24226616 343.07856117 -0.24712836 344.53399843 -0.26306303 C355.0860474 -0.37059526 355.0860474 -0.37059526 358.69762558 1.56211346 C362.00158865 4.89699507 362.32592188 8.86880401 362.39367682 13.30611807 C362.38184109 14.18403948 362.37000536 15.06196089 362.35781097 15.96648598 C362.36490536 16.91138529 362.37199975 17.85628461 362.37930912 18.82981724 C362.39689448 21.99223872 362.37878104 25.15343207 362.3607254 28.31583595 C362.36586395 30.5844472 362.37314474 32.85305445 362.38240814 35.1216526 C362.40093718 41.28067762 362.3879741 47.43927026 362.36831784 53.59827733 C362.35194468 60.0408328 362.3607423 66.48336061 362.3658371 72.92592812 C362.3703592 83.74429196 362.35458444 94.56245591 362.32654572 105.38077736 C362.29770226 116.50975664 362.29062832 127.63848969 362.3060379 138.76749611 C362.32458819 152.18311098 362.32286321 165.59852747 362.30382347 179.01415253 C362.29694546 184.13727737 362.29799314 189.26031072 362.30536842 194.3834343 C362.31302059 200.41390807 362.30093962 206.44402648 362.27351952 212.47443962 C362.26662375 214.68960007 362.2665504 216.90479363 362.27373505 219.11995316 C362.28240225 222.13983412 362.26651939 225.15861151 362.24428558 228.17840004 C362.25252635 229.05855217 362.26076712 229.9387043 362.26925761 230.84552771 C362.25820992 231.65644714 362.24716223 232.46736656 362.23577976 233.30285931 C362.23458828 233.99943144 362.2333968 234.69600357 362.23216921 235.41368395 C361.46754728 238.60161712 360.07174469 240.24483946 357.72962189 242.50895119 C354.89703989 243.13454634 354.89703989 243.13454634 351.54826355 243.13536358 C350.27132677 243.14778562 348.99438998 243.16020765 347.67875814 243.17300612 C346.25873795 243.16150448 344.83872151 243.14953224 343.4187088 243.13714027 C341.91254661 243.14218353 340.40639041 243.14941065 338.90024805 243.15863842 C334.75523278 243.17761952 330.61080507 243.16529436 326.46580434 243.14791548 C321.99810328 243.13457554 317.53049013 243.14996641 313.06279755 243.16173744 C304.30817209 243.18014369 295.5537694 243.17158186 286.79915082 243.15364922 C279.68589602 243.13963959 272.57270179 243.13572688 265.45943451 243.13909149 C264.44812451 243.13956893 263.43681451 243.14004638 262.39485875 243.14053829 C260.34058279 243.14156459 258.28630685 243.14261994 256.23203093 243.14370405 C238.05556477 243.15227715 219.87920636 243.13557633 201.70276642 243.10587502 C184.05395735 243.07703615 166.40530352 243.06995329 148.75647736 243.0853672 C129.55106868 243.10211755 110.34573375 243.10617549 91.14032316 243.08865684 C89.09348521 243.0868124 87.04664724 243.08497767 84.99980927 243.08315277 C83.48907309 243.08178464 83.48907309 243.08178464 81.947817 243.08038886 C74.84079635 243.0747762 67.73381162 243.07809743 60.62679291 243.08469772 C51.96900092 243.09241879 43.31136191 243.08572269 34.65360081 243.06052268 C30.23386948 243.04799905 25.81437666 243.04191562 21.39463615 243.05306435 C17.35185091 243.06306986 13.30954235 243.05472662 9.26681536 243.03148317 C7.80120182 243.02630329 6.33554593 243.02792258 4.86995059 243.03687782 C2.88364507 243.04800881 0.8972426 243.03229363 -1.08901978 243.01510906 C-2.19411597 243.01391758 -3.29921216 243.0127261 -4.43779612 243.01149851 C-7.97306055 242.3842836 -9.15418881 241.37310961 -11.27037811 238.50895119 C-11.77292544 236.51634502 -11.77292544 236.51634502 -11.77653599 234.3734684 C-11.78758368 233.55285644 -11.79863136 232.73224447 -11.81001383 231.88676548 C-11.80177306 230.99066342 -11.7935323 230.09456137 -11.78504181 229.1713047 C-11.79198734 228.21515801 -11.79893287 227.25901133 -11.80608886 226.2738905 C-11.82442333 223.061644 -11.81407646 219.85013067 -11.80382538 216.63785744 C-11.81088053 214.33836245 -11.81962383 212.03887212 -11.82993317 209.73938942 C-11.8524809 203.48741522 -11.84947495 197.23569352 -11.8406117 190.98369408 C-11.8355108 185.76963415 -11.84278699 180.55562204 -11.85008377 175.34156704 C-11.8680731 162.34124603 -11.86165457 149.34106625 -11.84391396 136.34075034 C-11.82921454 125.0465851 -11.84384791 113.75268584 -11.87268413 102.45855486 C-11.90206606 90.86444898 -11.91254558 79.27047678 -11.90350193 67.67633533 C-11.89856332 61.16596478 -11.9008391 54.65580106 -11.92128944 48.14545631 C-11.93959238 42.02551198 -11.93375346 35.90606355 -11.90909004 29.78614616 C-11.90406531 27.53669548 -11.90761467 25.28720736 -11.92023849 23.03778648 C-11.93607855 19.97348008 -11.92130306 16.91082483 -11.8985672 13.84659767 C-11.91040293 12.95049562 -11.92223866 12.05439356 -11.93443304 11.13113689 C-11.91579999 9.90021895 -11.91579999 9.90021895 -11.8967905 8.64443398 C-11.89652082 7.93728469 -11.89625113 7.2301354 -11.89597327 6.50155735 C-10.13994239 0.90835873 -5.20802064 0.00822184 0 0 Z M-0.27037811 12.50895119 C-0.27037811 85.17638238 -0.13540528 157.84666879 0.72962189 230.50895119 C115.89962189 230.50895119 231.06962189 230.50895119 349.72962189 230.50895119 C349.72962189 158.56895119 349.72962189 86.62895119 349.72962189 12.50895119 C234.22962189 12.50895119 118.72962189 12.50895119 -0.27037811 12.50895119 Z " fill="#F0F0EE" transform="translate(464.27037811279297,414.4910488128662)"/>
<path d="M0 0 C4.78406209 1.66655512 6.66998306 4.94531409 9.51953125 8.9921875 C10.67056323 10.5608592 11.82290777 12.12856865 12.9765625 13.6953125 C13.80921631 14.8409668 13.80921631 14.8409668 14.65869141 16.00976562 C29.72341044 36.51412618 47.70663192 55.48078512 66.50390625 72.56689453 C68.07954331 74.00113985 69.6450763 75.44541914 71.20703125 76.89453125 C77.34719776 82.55499725 83.68158891 87.90728827 90.20703125 93.1171875 C90.98554443 93.74512207 90.98554443 93.74512207 91.77978516 94.38574219 C106.48803548 106.24198939 121.93268555 116.84296954 138.00683594 126.75927734 C139.98733913 127.98159855 141.96081571 129.21449305 143.93359375 130.44921875 C155.01171537 137.30863263 166.60952778 143.19475105 178.20703125 149.1171875 C179.44308105 149.75164795 179.44308105 149.75164795 180.70410156 150.39892578 C182.88963789 151.5192543 185.07847929 152.63269164 187.26953125 153.7421875 C187.89335693 154.0606665 188.51718262 154.37914551 189.15991211 154.70727539 C190.82680929 155.54221865 192.51643687 156.33133314 194.20703125 157.1171875 C195.12226562 157.61347656 196.0375 158.10976563 196.98046875 158.62109375 C202.27410689 159.43500664 206.13371376 156.82594972 210.76953125 154.4296875 C212.28994019 153.6706311 212.28994019 153.6706311 213.84106445 152.89624023 C216.97387949 151.3236202 220.0908234 149.7224165 223.20703125 148.1171875 C225.03225108 147.19471669 226.85775773 146.27281309 228.68359375 145.3515625 C256.85307683 130.99558256 284.12399355 113.66573621 308.20703125 93.1171875 C308.76374512 92.64394043 309.32045898 92.17069336 309.89404297 91.68310547 C313.50766588 88.60981916 317.10754095 85.52107964 320.69726562 82.41992188 C321.91094193 81.37267466 323.12865537 80.33010705 324.34765625 79.2890625 C334.35086649 70.67760325 343.96926043 61.54110988 353.20703125 52.1171875 C354.41359375 50.9415625 354.41359375 50.9415625 355.64453125 49.7421875 C362.07667176 43.15316551 368.03489519 36.19372671 373.8203125 29.03515625 C375.96309791 26.41541696 378.14625183 23.83995201 380.35009766 21.27197266 C385.05336109 15.78887676 389.43794488 10.21313239 393.55078125 4.26171875 C395.20703125 2.1171875 395.20703125 2.1171875 398.20703125 0.1171875 C401.33203125 0.3671875 401.33203125 0.3671875 404.20703125 1.1171875 C405.67648319 4.05609138 405.59381865 5.83523896 405.20703125 9.1171875 C403.73195456 11.8728336 401.84295211 14.24356884 399.89453125 16.6796875 C399.35054687 17.38077637 398.8065625 18.08186523 398.24609375 18.80419922 C393.53556254 24.82761341 388.63876683 30.68953806 383.63085938 36.46679688 C382.10843352 38.23147431 380.60193978 40.00890045 379.09765625 41.7890625 C374.49611521 47.22277438 369.92821884 52.59606439 364.7890625 57.53515625 C362.94770665 59.3765121 361.27266416 61.32443867 359.58203125 63.3046875 C357.00547256 66.30108723 354.31215699 68.66577245 351.20703125 71.1171875 C350.01156717 72.5711303 348.81705218 74.02593479 347.63671875 75.4921875 C345.44778453 77.98015645 342.95241474 80.06084483 340.43359375 82.20703125 C338.04383781 84.25719029 335.720128 86.36961904 333.39453125 88.4921875 C324.29267877 96.69355229 314.62652197 104.21694501 304.96679688 111.74414062 C303.25723057 113.07801977 301.55233995 114.41770275 299.84765625 115.7578125 C293.40643948 120.79780567 286.84206521 125.56831406 279.95654297 129.99072266 C278.72315937 130.7848661 277.49333298 131.58454765 276.26611328 132.38818359 C257.44313366 144.70923999 237.76284596 155.56967609 217.58203125 165.4921875 C216.47472656 166.04575928 215.36742187 166.59933105 214.2265625 167.16967773 C201.07765246 173.50313663 201.07765246 173.50313663 193.8046875 171.43359375 C191.13419158 170.38861708 188.59043752 169.19987231 186.01953125 167.9296875 C185.06973389 167.47843506 184.11993652 167.02718262 183.14135742 166.56225586 C172.61160694 161.48678956 162.3765969 155.87315023 152.20703125 150.1171875 C151.39669434 149.66230957 150.58635742 149.20743164 149.75146484 148.73876953 C131.03163648 138.21151039 112.9103585 126.94109292 96.07080078 113.58398438 C94.32871496 112.21295325 92.56964576 110.87006813 90.796875 109.5390625 C78.6148452 100.38286219 67.30532337 90.2464543 56.171875 79.85546875 C52.76943533 76.68935563 49.2580719 73.65254345 45.71875 70.640625 C44.20703125 69.1171875 44.20703125 69.1171875 44.20703125 67.1171875 C43.21703125 66.7871875 42.22703125 66.4571875 41.20703125 66.1171875 C39.6640625 64.55078125 39.6640625 64.55078125 38.01953125 62.5546875 C35.56932876 59.65759273 33.06066786 56.94073564 30.33203125 54.3046875 C26.35689485 50.39094317 22.89200965 46.15839569 19.40625 41.80859375 C17.51331457 39.49201736 15.5583203 37.30377789 13.51953125 35.1171875 C9.29380119 30.42859857 5.57800942 25.37733654 1.83203125 20.3046875 C0.9025769 19.04881836 0.9025769 19.04881836 -0.0456543 17.76757812 C-6.8859928 8.41952418 -6.8859928 8.41952418 -6.60546875 4.4921875 C-5.38446459 0.92309842 -3.67508074 0.15419919 0 0 Z " fill="#EFEFEC" transform="translate(439.79296875,797.8828125)"/>
<path d="M0 0 C1.06734375 -0.00759338 2.1346875 -0.01518677 3.234375 -0.02301025 C6.7549475 -0.03780457 10.27220268 0.00490299 13.79248047 0.04980469 C16.24054578 0.05457426 18.68861849 0.05638403 21.13668823 0.05535889 C26.26314225 0.06161153 31.38847617 0.09471624 36.51464844 0.1484375 C43.09019095 0.21647019 49.6645051 0.23169257 56.24035835 0.22865677 C61.29328162 0.22974357 66.3459356 0.25166677 71.39876938 0.28066254 C73.82368812 0.29340179 76.2486374 0.3012771 78.6735878 0.30423737 C82.05896431 0.31289654 85.44302963 0.3478771 88.828125 0.390625 C90.3352858 0.38790588 90.3352858 0.38790588 91.87289429 0.38513184 C98.6573054 0.5106127 98.6573054 0.5106127 101.84671021 2.854599 C104.72893692 7.09805224 106.83414496 11.6607711 109.03466797 16.28417969 C109.54126953 17.30447266 110.04787109 18.32476563 110.56982422 19.37597656 C115.30442006 29.24716224 115.30442006 29.24716224 114.28466797 34.97167969 C110.91555781 37.21775312 109.79846229 37.22413214 105.85693359 37.2323761 C104.16600586 37.24300331 104.16600586 37.24300331 102.44091797 37.25384521 C101.20341797 37.2513678 99.96591797 37.24889038 98.69091797 37.24633789 C97.38832031 37.25144882 96.08572266 37.25655975 94.74365234 37.26182556 C91.16933391 37.27522778 87.59512114 37.27579298 84.02078247 37.27326226 C81.03851213 37.27219355 78.05626325 37.27707327 75.0739975 37.28186768 C68.04003803 37.29296673 61.00613196 37.29339781 53.97216797 37.28735352 C46.71086959 37.28130995 39.4497648 37.29363343 32.18849945 37.31492358 C25.95743319 37.33252273 19.72642865 37.33854369 13.49533844 37.33528584 C9.77231077 37.3334704 6.04942123 37.33613506 2.32641602 37.35000038 C-1.82304517 37.36487555 -5.97211055 37.35562347 -10.12158203 37.34399414 C-11.35908203 37.35163788 -12.59658203 37.35928162 -13.87158203 37.36715698 C-15.56250977 37.35663551 -15.56250977 37.35663551 -17.28759766 37.34590149 C-18.75984802 37.3461531 -18.75984802 37.3461531 -20.26184082 37.3464098 C-22.71533203 36.97167969 -22.71533203 36.97167969 -24.5267334 35.61088848 C-26.46622398 32.93611676 -26.14195119 31.22745749 -25.71533203 27.97167969 C-24.56447775 24.73240257 -23.10321906 21.6806417 -21.59033203 18.59667969 C-21.21134766 17.78457031 -20.83236328 16.97246094 -20.44189453 16.13574219 C-19.26186566 13.68128214 -18.09934746 11.31961905 -16.71533203 8.97167969 C-16.35794575 8.32304522 -16.00055946 7.67441074 -15.63234329 7.00612068 C-11.39430281 0.26596373 -7.65296109 -0.17189877 0 0 Z M-4.71533203 12.97167969 C-8.18429482 18.7429386 -8.18429482 18.7429386 -9.71533203 24.97167969 C26.25466797 24.97167969 62.22466797 24.97167969 99.28466797 24.97167969 C97.30466797 21.01167969 95.32466797 17.05167969 93.28466797 12.97167969 C60.94466797 12.97167969 28.60466797 12.97167969 -4.71533203 12.97167969 Z " fill="#EFF0ED" transform="translate(594.71533203125,708.0283203125)"/>
<path d="M0 0 C0.99 0 1.98 0 3 0 C3 2 3 2 1.87934273 3.60192853 C-0.80221132 5.59677713 -2.74557228 5.37256198 -6.06948376 5.36914349 C-7.98560255 5.3781032 -7.98560255 5.3781032 -9.94043082 5.38724393 C-11.3661472 5.37868419 -12.79186194 5.36984739 -14.21757507 5.36076355 C-15.72571803 5.362071 -17.23386032 5.36469631 -18.74199897 5.36853105 C-22.89688204 5.37525989 -27.05153445 5.36321056 -31.20638812 5.34819686 C-35.6828599 5.3352752 -40.15931804 5.33962321 -44.63580322 5.34190369 C-52.39513432 5.34347888 -60.15438991 5.33404404 -67.91370201 5.31719017 C-79.13243617 5.29283798 -90.35113371 5.28499878 -101.56989143 5.2812262 C-119.7703292 5.27465577 -137.97072669 5.25467858 -156.17114258 5.22631836 C-173.85408323 5.19879308 -191.53701296 5.17755201 -209.2199707 5.16479492 C-210.30943592 5.16400675 -211.39890113 5.16321858 -212.52138045 5.16240653 C-217.98675448 5.15849149 -223.4521286 5.15470035 -228.91750276 5.15097082 C-274.27836307 5.1198565 -319.63917946 5.06700462 -365 5 C-365 4.67 -365 4.34 -365 4 C-245.54 4 -126.08 4 -3 4 C-3 3.34 -3 2.68 -3 2 C-2.01 2 -1.02 2 0 2 C0 1.34 0 0.68 0 0 Z " fill="#CFD0CC" transform="translate(822,652)"/>
<path d="M0 0 C-1.485 1.485 -1.485 1.485 -3 3 C-2.67 3.66 -2.34 4.32 -2 5 C-5.66305234 5.74926071 -8.42355152 6.2380014 -12 5 C-11.0518738 2.62968451 -10.31103322 1.23327492 -8.25 -0.3125 C-5.24827907 -1.22969251 -3.02230874 -0.68688835 0 0 Z " fill="#E7E7E6" transform="translate(646,1010)"/>
<path d="M0 0 C1.2065625 0.0309375 1.2065625 0.0309375 2.4375 0.0625 C1.1175 0.3925 -0.2025 0.7225 -1.5625 1.0625 C-1.5625 1.7225 -1.5625 2.3825 -1.5625 3.0625 C-0.5725 3.0625 0.4175 3.0625 1.4375 3.0625 C1.4375 3.7225 1.4375 4.3825 1.4375 5.0625 C0.468125 5.18625 -0.50125 5.31 -1.5 5.4375 C-3.0159375 5.746875 -3.0159375 5.746875 -4.5625 6.0625 C-4.8925 6.7225 -5.2225 7.3825 -5.5625 8.0625 C-6.2225 7.7325 -6.8825 7.4025 -7.5625 7.0625 C-2.95174051 0.07199367 -2.95174051 0.07199367 0 0 Z " fill="#E2E4DF" transform="translate(586.5625,708.9375)"/>
<path d="M0 0 C0.33 0.66 0.66 1.32 1 2 C1.66 2.33 2.32 2.66 3 3 C-1.43076923 6.07692308 -1.43076923 6.07692308 -4.3125 5.6875 C-4.869375 5.460625 -5.42625 5.23375 -6 5 C-5.67 4.01 -5.34 3.02 -5 2 C-2.4375 0.8125 -2.4375 0.8125 0 0 Z " fill="#E2E2E1" transform="translate(701,983)"/>
<path d="M0 0 C0.99 0.33 1.98 0.66 3 1 C3 2.65 3 4.3 3 6 C1.02 6.99 1.02 6.99 -1 8 C-1.93065133 5.39417629 -2.14917407 4.35801776 -1.0625 1.75 C-0.711875 1.1725 -0.36125 0.595 0 0 Z " fill="#E9E9E5" transform="translate(486,860)"/>
<path d="M0 0 C1.1446875 0.495 1.1446875 0.495 2.3125 1 C7.25174651 2.33945668 11.91463109 2.16287658 17 2 C17 2.33 17 2.66 17 3 C12.75448144 4.09587955 9.0407161 3.92865836 4.6875 3.5625 C3.43324219 3.46066406 2.17898438 3.35882812 0.88671875 3.25390625 C-0.06589844 3.17011719 -1.01851562 3.08632813 -2 3 C-1.34 2.01 -0.68 1.02 0 0 Z " fill="#FAFAF9" transform="translate(749,782)"/>
<path d="M0 0 C-0.33 2.31 -0.66 4.62 -1 7 C-2.65 5.35 -4.3 3.7 -6 2 C-3 0 -3 0 0 0 Z " fill="#E2E4DF" transform="translate(525,895)"/>
<path d="M0 0 C0.33 0.99 0.66 1.98 1 3 C-2.3 6.3 -5.6 9.6 -9 13 C-9 8.86218946 -7.28490393 7.79080004 -4.5 4.8125 C-3.6646875 3.91144531 -2.829375 3.01039063 -1.96875 2.08203125 C-0.99421875 1.05142578 -0.99421875 1.05142578 0 0 Z " fill="#D1D2CE" transform="translate(810,831)"/>
<path d="M0 0 C0.33 0.99 0.66 1.98 1 3 C-0.43359375 5.04296875 -0.43359375 5.04296875 -2.4375 7.1875 C-3.09621094 7.90292969 -3.75492187 8.61835937 -4.43359375 9.35546875 C-4.95050781 9.89816406 -5.46742188 10.44085937 -6 11 C-6.66 10.67 -7.32 10.34 -8 10 C-5.36 6.7 -2.72 3.4 0 0 Z " fill="#C9CAC7" transform="translate(398,713)"/>
<path d="M0 0 C2.31 0.66 4.62 1.32 7 2 C5.02 2.99 5.02 2.99 3 4 C3 4.66 3 5.32 3 6 C1.68 5.67 0.36 5.34 -1 5 C-0.67 3.35 -0.34 1.7 0 0 Z " fill="#DEDEDB" transform="translate(770,285)"/>
<path d="M0 0 C1.32 0.99 2.64 1.98 4 3 C2.35 4.98 0.7 6.96 -1 9 C-1.66 8.01 -2.32 7.02 -3 6 C-2.01 4.02 -1.02 2.04 0 0 Z " fill="#E3E3DE" transform="translate(820,831)"/>
<path d="M0 0 C3.125 0.375 3.125 0.375 6 1 C6.33 2.32 6.66 3.64 7 5 C4.03 4.01 1.06 3.02 -2 2 C-1.34 1.34 -0.68 0.68 0 0 Z " fill="#D7D7D3" transform="translate(712,227)"/>
<path d="M0 0 C0 0.99 0 1.98 0 3 C-0.99 3.495 -0.99 3.495 -2 4 C-2 3.34 -2 2.68 -2 2 C-3.65 2.66 -5.3 3.32 -7 4 C-7.33 3.01 -7.66 2.02 -8 1 C-5.07175348 0.02391783 -3.04386724 -0.08226668 0 0 Z " fill="#E5E4E1" transform="translate(436,682)"/>
<path d="M0 0 C0.33 1.32 0.66 2.64 1 4 C-0.98 4.99 -0.98 4.99 -3 6 C-3.99 4.68 -4.98 3.36 -6 2 C-2.25 0 -2.25 0 0 0 Z " fill="#DDDEDA" transform="translate(627,188)"/>
<path d="M0 0 C0.99 0.33 1.98 0.66 3 1 C1.02 3.97 1.02 3.97 -1 7 C-1.66 6.01 -2.32 5.02 -3 4 C-2.67 3.01 -2.34 2.02 -2 1 C-1.34 1.33 -0.68 1.66 0 2 C0 1.34 0 0.68 0 0 Z " fill="#D4D3D0" transform="translate(901,792)"/>
<path d="M0 0 C0.66 0 1.32 0 2 0 C2.28875 0.61875 2.5775 1.2375 2.875 1.875 C3.93720042 4.13325765 3.93720042 4.13325765 6 6 C4.02 6.99 4.02 6.99 2 8 C0.74335022 5.09399739 0 3.20395416 0 0 Z " fill="#EBECE9" transform="translate(884,733)"/>
<path d="M0 0 C6.625 -0.125 6.625 -0.125 10 1 C10 1.66 10 2.32 10 3 C8.68 3.33 7.36 3.66 6 4 C6 3.34 6 2.68 6 2 C3.03 1.505 3.03 1.505 0 1 C0 0.67 0 0.34 0 0 Z " fill="#ECEDE8" transform="translate(712,226)"/>
<path d="M0 0 C0.33 0.66 0.66 1.32 1 2 C-0.32 1.67 -1.64 1.34 -3 1 C-3 1.66 -3 2.32 -3 3 C-3.66 3 -4.32 3 -5 3 C-5 2.34 -5 1.68 -5 1 C-5.99 0.67 -6.98 0.34 -8 0 C-5.09660535 -1.45169732 -3.09125158 -0.72348441 0 0 Z " fill="#CACAC7" transform="translate(443,799)"/>
<path d="M0 0 C0.99 0.33 1.98 0.66 3 1 C1.35 2.65 -0.3 4.3 -2 6 C-2.99 5.67 -3.98 5.34 -5 5 C-4.01 4.67 -3.02 4.34 -2 4 C-0.79117904 1.99983534 -0.79117904 1.99983534 0 0 Z " fill="#CACAC8" transform="translate(806,894)"/>
<path d="M0 0 C0.33 1.32 0.66 2.64 1 4 C-0.9375 6.25 -0.9375 6.25 -3 8 C-3.66 7.67 -4.32 7.34 -5 7 C-3.35 4.69 -1.7 2.38 0 0 Z " fill="#CDCDCA" transform="translate(382,733)"/>
</svg>
